<svg width="275" height="274" viewBox="0 0 275 274" fill="none" xmlns="http://www.w3.org/2000/svg">
<g clip-path="url(#clip0_177_2118)">
<mask id="mask0_177_2118" style="mask-type:luminance" maskUnits="userSpaceOnUse" x="-218" y="-171" width="1136" height="794">
<path d="M-218 -171H918V623H-218V-171Z" fill="white"/>
</mask>
<g mask="url(#mask0_177_2118)">
<path d="M251.876 153.28C242.824 216.092 183.985 259.753 120.444 250.807C56.9087 241.864 12.7352 183.698 21.7852 120.891C30.8366 58.0839 89.6762 14.4224 153.215 23.3684C216.753 32.3144 260.922 90.4759 251.876 153.28Z" fill="white"/>
<path d="M214.144 207.436L230.046 221.933C230.046 221.933 230.884 221.093 232.23 219.516C232.913 218.733 233.739 217.784 234.689 216.694C235.587 215.564 236.602 214.289 237.707 212.898C242.06 207.281 247.277 199.317 251.361 190.77C255.467 182.212 258.386 173.239 260.054 166.277C260.452 164.477 260.817 162.829 261.141 161.367C261.431 159.949 261.574 158.899 261.748 157.941C262.067 156.074 262.249 155.007 262.249 155.007L240.917 151.456C240.917 151.456 240.735 152.523 240.418 154.389C240.253 155.291 240.078 156.528 239.831 157.685C239.583 158.788 239.301 160.034 238.993 161.391C237.644 167.015 235.199 174.561 231.812 181.613C228.426 188.687 224.106 195.285 220.498 199.941C219.581 201.096 218.742 202.154 217.997 203.091C217.208 203.994 216.521 204.781 215.956 205.428C214.844 206.742 214.144 207.436 214.144 207.436Z" fill="#FAC717"/>
<path d="M129.396 240.681L127.843 262.008C127.843 262.008 129.032 262.084 131.115 262.217C132.155 262.306 133.425 262.277 134.878 262.314C136.334 262.317 137.974 262.407 139.764 262.311C146.921 262.207 156.476 261.237 165.773 259.039C175.086 256.908 184.071 253.576 190.532 250.534C192.174 249.824 193.615 249.048 194.911 248.394C196.195 247.722 197.343 247.188 198.238 246.655C200.045 245.622 201.078 245.032 201.078 245.032L190.097 226.607C190.097 226.607 189.242 227.098 187.742 227.957C187.002 228.405 186.044 228.838 184.979 229.398C183.904 229.939 182.713 230.594 181.347 231.174C175.989 233.699 168.539 236.458 160.828 238.221C153.129 240.042 145.221 240.85 139.287 240.933C137.804 241.022 136.442 240.933 135.237 240.933C134.031 240.899 132.978 240.935 132.113 240.858C130.384 240.743 129.396 240.681 129.396 240.681Z" fill="#FAC717"/>
<path d="M50.243 195.935L32.4209 208.054C32.4209 208.054 33.1145 209.015 34.3262 210.694C35.5042 212.4 37.3865 214.692 39.6291 217.445C44.1791 222.904 50.9029 229.666 58.4268 235.486C65.9103 241.357 74.144 246.237 80.5817 249.338C82.1686 250.163 83.6731 250.814 85.0049 251.396C86.338 251.973 87.4904 252.5 88.4565 252.891C90.4063 253.635 91.5195 254.063 91.5195 254.063L99.2378 234.087C99.2378 234.087 98.3148 233.735 96.6996 233.12C95.8981 232.797 94.9468 232.354 93.8431 231.878C92.7393 231.398 91.4912 230.864 90.181 230.173C84.8483 227.608 78.0315 223.566 71.8272 218.697C65.5878 213.874 60.0015 208.265 56.2274 203.732C54.3734 201.437 52.796 199.547 51.8272 198.125C50.8192 196.732 50.243 195.935 50.243 195.935Z" fill="#FAC717"/>
<path d="M36.2776 106.838L15.5747 100.64C15.5747 100.64 15.2522 101.776 14.6962 103.765C14.4291 104.772 14.0674 105.943 13.7233 107.382C13.3982 108.843 13.0325 110.491 12.6331 112.289C12.4104 113.233 12.2836 114.041 12.1379 114.901C11.9908 115.764 11.8397 116.655 11.6831 117.571C11.6049 118.03 11.5266 118.494 11.447 118.965L11.3512 119.594L11.304 119.984L11.2095 120.771C11.0854 121.828 10.9572 122.905 10.829 124.003C10.3351 128.394 10.1206 133.111 10.1058 137.828C10.0828 147.276 11.4362 156.675 12.9515 163.59C13.3671 165.312 13.7476 166.89 14.085 168.29C14.4156 169.691 14.8204 170.88 15.097 171.876C15.6839 173.859 16.0186 174.99 16.0186 174.99L36.6339 168.509C36.6339 168.509 36.3573 167.57 35.8742 165.927C35.6489 165.101 35.3021 164.118 35.0336 162.956C34.7542 161.798 34.4385 160.49 34.0944 159.064C32.8449 153.337 31.7142 145.559 31.7385 137.727C31.756 133.813 31.9274 129.9 32.3416 126.248C32.4482 125.337 32.5535 124.439 32.6574 123.562C32.6978 123.208 32.7383 122.86 32.7788 122.516C32.8584 122.045 32.9367 121.581 33.0163 121.122C33.1715 120.206 33.3239 119.315 33.4697 118.452C33.6167 117.587 33.7544 116.724 33.919 116.098C34.2253 114.74 34.506 113.495 34.7542 112.392C35.0174 111.274 35.3399 110.25 35.5558 109.431C36.0159 107.781 36.2776 106.838 36.2776 106.838Z" fill="#FAC717"/>
<path d="M98.0677 40.5447L90.0675 20.676C90.0675 20.676 88.9597 21.1162 87.022 21.8858C86.0721 22.3139 84.9184 22.8341 83.5947 23.4304C82.9335 23.7305 82.2305 24.0479 81.4883 24.3854C80.7637 24.7535 80.0014 25.1417 79.2052 25.5471C72.8188 28.735 64.6539 33.7035 57.2352 39.6457C49.7571 45.5212 43.1521 52.3984 38.6358 57.8858C36.4189 60.6655 34.5797 62.989 33.4139 64.7056C32.2103 66.3942 31.5234 67.3586 31.5234 67.3586L49.4886 79.271C49.4886 79.271 50.0594 78.472 51.0606 77.0755C52.0173 75.647 53.5542 73.7303 55.3839 71.4188C59.131 66.8704 64.6094 61.159 70.8218 56.2852C76.9829 51.354 83.7593 47.2272 89.0595 44.5835C89.7193 44.2447 90.3508 43.9219 90.9513 43.6138C91.5666 43.3377 92.1509 43.0736 92.7 42.8269C93.7971 42.3307 94.7524 41.8972 95.5404 41.5411C97.1488 40.9062 98.0677 40.5447 98.0677 40.5447Z" fill="#FAC717"/>
<path d="M189.023 46.926L199.772 28.3698C199.772 28.3698 198.734 27.787 196.917 26.7679C195.986 26.2997 194.855 25.7302 193.558 25.078C192.264 24.419 190.796 23.6934 189.147 22.9985C185.893 21.5233 182.012 19.9721 177.774 18.5515C175.647 17.862 173.463 17.107 171.184 16.5348C170.051 16.228 168.909 15.9199 167.763 15.6091C166.592 15.317 165.353 15.0689 164.148 14.8008C162.953 14.5474 161.683 14.2553 160.551 14.0445C159.477 13.8645 158.407 13.6871 157.343 13.5097C156.812 13.4216 156.284 13.3336 155.758 13.2469L154.97 13.1149L153.849 12.9735C152.706 12.8414 151.579 12.7107 150.468 12.5827C148.254 12.2839 146.091 12.1932 144.047 12.0518C142.003 11.8837 140.064 11.8811 138.273 11.8544C134.693 11.733 131.711 11.9771 129.624 12.0145C127.539 12.1345 126.352 12.2612 126.352 12.2612L128.122 33.5731C128.122 33.5731 129.106 33.4651 130.833 33.365C132.564 33.3477 135.033 33.1223 138.002 33.2356C139.487 33.2583 141.096 33.2516 142.793 33.3997C144.491 33.5211 146.287 33.5824 148.129 33.8399C149.052 33.9466 149.991 34.0546 150.941 34.164L151.298 34.204L151.476 34.224L151.565 34.2333L151.61 34.2387L151.633 34.2413C151.889 34.2814 151.309 34.1907 151.378 34.2013L152.166 34.3334C152.692 34.4214 153.221 34.5081 153.751 34.5975C154.813 34.7735 155.885 34.9509 156.96 35.131C157.965 35.3217 158.811 35.5392 159.749 35.7366C160.669 35.9473 161.571 36.118 162.506 36.3515C163.456 36.6115 164.403 36.8676 165.342 37.1237C167.235 37.5892 169.041 38.2281 170.806 38.7937C174.317 39.9715 177.53 41.2546 180.224 42.479C181.594 43.0473 182.807 43.6528 183.878 44.1997C184.952 44.7386 185.889 45.2081 186.661 45.5949C188.164 46.4418 189.023 46.926 189.023 46.926Z" fill="#FAC717"/>
<path d="M240.698 121.184L262.076 117.919C262.076 117.919 262.035 117.627 261.959 117.078C261.857 116.535 261.707 115.738 261.517 114.721C261.324 113.708 261.089 112.474 260.821 111.061C260.485 109.661 260.104 108.083 259.69 106.361C257.947 99.4985 254.901 90.5032 250.667 82.0387C246.468 73.5596 241.176 65.6607 236.758 60.1013C234.587 57.2882 232.592 55.0941 231.224 53.5375C230.549 52.7492 229.981 52.165 229.593 51.7689C229.205 51.3687 229 51.1553 229 51.1553L213.255 65.8181C213.255 65.8181 213.426 65.9955 213.747 66.3262C214.071 66.6544 214.545 67.1372 215.101 67.7948C216.234 69.0899 217.897 70.9053 219.694 73.2448C223.361 77.8598 227.755 84.4196 231.243 91.4515C234.757 98.4741 237.273 105.93 238.721 111.612C239.065 113.038 239.381 114.345 239.66 115.504C239.882 116.676 240.073 117.696 240.231 118.538C240.392 119.378 240.517 120.038 240.603 120.488C240.665 120.941 240.698 121.184 240.698 121.184Z" fill="#FAC717"/>
<path d="M248.675 169.048L269.445 175.003C269.445 175.003 269.85 173.782 270.386 171.595C270.665 170.506 271.005 169.183 271.395 167.663C271.715 166.129 272.076 164.4 272.47 162.511C273.952 154.944 275.119 144.672 274.897 134.376C274.692 124.062 273.122 113.906 271.324 106.323C270.828 104.384 270.376 102.606 269.974 101.031C269.561 99.5089 269.178 98.4018 268.876 97.3774C268.262 95.39 267.912 94.2536 267.912 94.2536L247.226 100.487C247.226 100.487 247.576 101.623 248.189 103.61C248.475 104.579 248.912 105.869 249.248 107.137C249.555 108.359 249.901 109.738 250.278 111.243C251.755 117.488 253.106 126.156 253.275 134.807C253.457 143.477 252.473 152.13 251.226 158.511C250.896 160.103 250.591 161.562 250.322 162.856C249.993 164.135 249.704 165.252 249.467 166.172C249.022 168.018 248.675 169.048 248.675 169.048Z" fill="#3871C1"/>
<path d="M181.28 243.431L189.517 263.196C189.517 263.196 190.716 262.701 192.812 261.829C193.87 261.414 195.094 260.776 196.529 260.115C197.949 259.416 199.594 258.718 201.29 257.762C208.217 254.222 217.055 248.684 225.037 242.071C233.067 235.519 240.187 227.95 244.99 221.879C246.243 220.4 247.266 218.95 248.208 217.691C249.129 216.417 249.985 215.344 250.596 214.394C251.85 212.519 252.566 211.446 252.566 211.446L234.426 199.806C234.426 199.806 233.822 200.712 232.766 202.296C232.256 203.101 231.523 204 230.747 205.076C229.952 206.139 229.097 207.367 228.034 208.611C223.984 213.734 217.978 220.109 211.215 225.63C204.493 231.2 197.054 235.866 191.213 238.848C189.788 239.662 188.393 240.237 187.199 240.829C185.985 241.387 184.96 241.936 184.064 242.28C182.292 243.013 181.28 243.431 181.28 243.431Z" fill="#3871C1"/>
<path d="M80.4209 237.755L69.9473 256.459C69.9473 256.459 71.0956 257.062 73.1034 258.117C75.0896 259.214 78.0528 260.542 81.5935 262.149C88.714 265.287 98.5966 268.646 108.795 270.702C118.98 272.831 129.407 273.63 137.208 273.56C139.161 273.602 140.947 273.516 142.531 273.44C144.115 273.364 145.498 273.323 146.632 273.24C148.899 273.031 150.194 272.908 150.194 272.908L148.084 251.635C148.084 251.635 146.992 251.736 145.083 251.916C144.128 251.987 142.963 252.015 141.629 252.08C140.295 252.146 138.791 252.227 137.146 252.182C130.576 252.244 121.793 251.567 113.206 249.775C104.607 248.043 96.2635 245.211 90.2536 242.562C87.2675 241.194 84.759 240.089 83.0872 239.154C81.3911 238.263 80.4209 237.755 80.4209 237.755Z" fill="#3871C1"/>
<path d="M22.0062 156.246L0.686523 159.832C0.686523 159.832 0.930755 161.095 1.36794 163.301C1.60138 164.411 1.82537 165.728 2.19779 167.293C2.59854 168.87 3.05058 170.648 3.54444 172.586C3.78867 173.605 4.06663 174.464 4.34865 175.379C4.63201 176.296 4.92482 177.246 5.22572 178.222C5.37685 178.711 5.52932 179.204 5.68315 179.706L5.8923 180.342L6.03937 180.746L6.33488 181.56C6.73294 182.648 7.13909 183.76 7.55199 184.893C9.23058 189.411 11.3423 194.114 13.6483 198.719C18.2725 207.941 24.2164 216.454 29.0929 222.465C30.3451 223.946 31.4934 225.301 32.5108 226.503C33.5215 227.71 34.5025 228.676 35.2608 229.515C36.8071 231.163 37.6923 232.108 37.6923 232.108L53.2084 217.215C53.2084 217.215 52.4649 216.419 51.1642 215.027C50.5273 214.318 49.692 213.514 48.8446 212.492C47.9878 211.48 47.0203 210.34 45.9651 209.092C41.8618 204.024 36.849 196.864 32.9548 189.086C31.0157 185.2 29.2279 181.236 27.8111 177.414C27.4616 176.456 27.1188 175.515 26.7815 174.594C26.6425 174.217 26.5049 173.841 26.37 173.471C26.2161 172.971 26.0623 172.476 25.9125 171.989C25.6116 171.013 25.3188 170.063 25.0355 169.146C24.7507 168.224 24.4593 167.314 24.3068 166.605C23.9276 165.1 23.5809 163.721 23.2732 162.499C22.9764 161.259 22.782 160.089 22.5864 159.17C22.218 157.309 22.0062 156.246 22.0062 156.246Z" fill="#3871C1"/>
<path d="M50.1044 60.3143L33.9797 46.069C33.9797 46.069 33.1162 47.0307 31.6049 48.7113C30.8884 49.585 30.0194 50.6467 29.0223 51.8645C28.5257 52.4741 27.9967 53.1236 27.4395 53.8079C26.9132 54.5162 26.3613 55.2604 25.7852 56.0381C21.1272 62.2163 15.6098 70.9849 11.3 80.3444C6.89975 89.6665 3.84213 99.5475 2.13925 107.069C1.34584 110.845 0.694107 113.993 0.403998 116.226C0.0599149 118.45 -0.135742 119.722 -0.135742 119.722L21.3134 122.455C21.3134 122.455 21.4808 121.385 21.7722 119.51C22.0084 117.626 22.5737 114.974 23.2309 111.788C24.6706 105.447 27.2452 97.1066 30.9653 89.2383C34.6072 81.3381 39.2624 73.934 43.1931 68.7227C43.6775 68.0652 44.143 67.4356 44.5842 66.8367C45.0565 66.2605 45.5032 65.715 45.9241 65.2014C46.7634 64.1731 47.4948 63.2767 48.0979 62.5378C49.3744 61.1226 50.1044 60.3143 50.1044 60.3143Z" fill="#3871C1"/>
<path d="M143.477 22.183L144.718 0.840462C144.718 0.840462 143.42 0.7711 141.146 0.651056C140.007 0.641719 138.626 0.629718 137.04 0.617713C135.455 0.597706 133.666 0.5937 131.717 0.709742C127.819 0.836456 123.273 1.18859 118.442 1.84083C116.03 2.19163 113.528 2.50507 111.026 3.0426C109.77 3.28803 108.506 3.53612 107.235 3.78555C105.951 4.06165 104.628 4.41378 103.324 4.73123C102.037 5.05802 100.665 5.37947 99.4542 5.71826C98.3086 6.06372 97.1698 6.40652 96.0377 6.74798C95.4723 6.91871 94.9096 7.0881 94.3497 7.2575L93.5104 7.50959L92.3702 7.90307C91.1922 8.32322 90.0277 8.73804 88.8835 9.14619C86.5761 9.91981 84.4239 10.8722 82.3621 11.7165C80.2854 12.5341 78.3923 13.4638 76.6341 14.2974C74.8705 15.1191 73.2662 15.898 71.8858 16.6716C70.4946 17.4213 69.2802 18.0735 68.2803 18.611C67.2805 19.1459 66.537 19.6421 66.0094 19.9435C65.4899 20.2583 65.2119 20.425 65.2119 20.425L76.4155 38.7104C76.4155 38.7104 76.6503 38.5691 77.0875 38.3036C77.5314 38.0502 78.1535 37.626 78.9995 37.1792C79.8429 36.7257 80.8657 36.1775 82.0396 35.5479C83.1987 34.889 84.5548 34.2368 86.0444 33.5459C87.5274 32.8429 89.1183 32.0493 90.8765 31.3677C92.6198 30.6581 94.4293 29.8418 96.3858 29.1963C97.3533 28.8508 98.3383 28.4987 99.3341 28.1425L99.7079 28.0078L99.8955 27.9411L99.9886 27.9078L100.037 27.8905L100.06 27.8811C100.307 27.8038 99.7497 27.9785 99.8172 27.9585L100.655 27.7051C101.215 27.537 101.779 27.3663 102.345 27.1969C103.474 26.8554 104.614 26.5126 105.758 26.1671C106.847 25.867 107.807 25.663 108.839 25.4015C109.86 25.1588 110.847 24.8853 111.894 24.6599C112.967 24.4518 114.034 24.2451 115.092 24.0397C117.202 23.5755 119.313 23.3248 121.345 23.0247C125.414 22.4751 129.244 22.1763 132.528 22.0723C134.169 21.9683 135.675 21.9763 137.011 21.9949C138.345 22.0043 139.51 22.0123 140.469 22.0176C142.382 22.123 143.477 22.183 143.477 22.183Z" fill="#3871C1"/>
<path d="M231.857 70.5513L249.509 58.2014C249.509 58.2014 249.325 57.9359 248.981 57.4384C248.614 56.9569 248.076 56.2513 247.39 55.3537C246.703 54.4573 245.868 53.3676 244.912 52.1178C243.895 50.916 242.749 49.5595 241.498 48.079C236.421 42.2288 229.028 34.9221 220.737 28.7051C212.472 22.4562 203.427 17.2983 196.385 14.0024C192.885 12.3018 189.861 11.1213 187.76 10.261C186.716 9.81817 185.874 9.52073 185.3 9.32065C184.727 9.11658 184.42 9.0072 184.42 9.0072L176.953 29.0706C176.953 29.0706 177.211 29.1613 177.695 29.3334C178.181 29.5001 178.892 29.7482 179.772 30.127C181.544 30.8579 184.099 31.845 187.052 33.2868C192.997 36.0679 200.633 40.4241 207.608 45.6928C214.604 50.9374 220.83 57.101 225.109 62.0268C226.162 63.2726 227.13 64.4143 227.987 65.4267C228.791 66.4791 229.493 67.3981 230.07 68.1544C230.649 68.9093 231.104 69.5029 231.414 69.907C231.703 70.3272 231.857 70.5513 231.857 70.5513Z" fill="#3871C1"/>
<path d="M161.875 57.6356L111.698 217.316" stroke="#7B7979" stroke-width="8" stroke-miterlimit="10"/>
<path d="M151.782 57.4708L166.01 44.4727L170.286 63.1516L151.782 57.4708Z" fill="#7B7979"/>
<path d="M206.343 136.606C206.343 174.684 175.114 205.553 136.593 205.553C98.0687 205.553 66.8408 174.684 66.8408 136.606C66.8408 98.5281 98.0687 67.658 136.593 67.658C175.114 67.658 206.343 98.5281 206.343 136.606Z" fill="white"/>
<path d="M206.343 136.606C206.343 174.684 175.114 205.553 136.593 205.553C98.0687 205.553 66.8408 174.684 66.8408 136.606C66.8408 98.5281 98.0687 67.658 136.593 67.658C175.114 67.658 206.343 98.5281 206.343 136.606Z" stroke="#7B7979" stroke-width="4" stroke-miterlimit="10"/>
<path d="M136.83 87.8252C148.171 87.8252 157.365 109.665 157.365 136.606C157.365 163.548 148.171 185.388 136.83 185.388C125.489 185.388 116.296 163.548 116.296 136.606C116.296 109.665 125.489 87.8252 136.83 87.8252Z" stroke="#40B93C" stroke-width="4" stroke-miterlimit="10"/>
<path d="M96.589 165.655C89.9475 156.569 102.473 136.412 124.566 120.635C146.656 104.858 169.949 99.4343 176.593 108.522C183.233 117.608 170.707 137.763 148.616 153.541C126.524 169.319 103.23 174.742 96.589 165.655Z" stroke="#00ADEF" stroke-width="4" stroke-miterlimit="10"/>
<path d="M93.1169 113.97C98.3794 104.039 122.217 106.124 146.358 118.626C170.502 131.128 185.806 149.315 180.544 159.245C175.28 169.175 151.442 167.089 127.301 154.587C103.159 142.084 87.8545 123.9 93.1169 113.97Z" stroke="#EF2E32" stroke-width="4" stroke-miterlimit="10"/>
</g>
<mask id="mask1_177_2118" style="mask-type:luminance" maskUnits="userSpaceOnUse" x="-218" y="-171" width="1136" height="794">
<path d="M-218 -171H918V623H-218V-171Z" fill="white"/>
</mask>
<g mask="url(#mask1_177_2118)">
<path d="M178.362 162.444L156.92 158.817L163.368 165.734L160.486 174.698L178.362 162.444Z" fill="#EF2E32"/>
<path d="M94.0756 166.762L105.726 148.603L96.7837 151.818L89.5283 145.734L94.0756 166.762Z" fill="#00ADEF"/>
<path d="M139.91 85.2602L118.727 90.1513L127.387 94.0488L128.252 103.414L139.91 85.2602Z" fill="#40B93C"/>
</g>
</g>
<defs>
<clipPath id="clip0_177_2118">
<rect width="275" height="274" fill="white"/>
</clipPath>
</defs>
</svg>
