<svg width="435" height="396" viewBox="0 0 435 396" fill="none" xmlns="http://www.w3.org/2000/svg">
<g clip-path="url(#clip0_177_2244)">
<mask id="mask0_177_2244" style="mask-type:luminance" maskUnits="userSpaceOnUse" x="-342" y="-119" width="1123" height="794">
<path d="M-342 -119H780.52V674.707H-342V-119Z" fill="white"/>
</mask>
<g mask="url(#mask0_177_2244)">
<path d="M332.938 152.618C323.994 215.406 265.853 259.051 203.066 250.109C140.285 241.169 96.6352 183.025 105.578 120.241C114.522 57.4568 172.663 13.8115 235.45 22.7541C298.233 31.6968 341.877 89.8368 332.938 152.618Z" fill="white"/>
<path d="M295.653 206.754L311.367 221.246C311.367 221.246 312.195 220.406 313.525 218.83C314.2 218.047 315.017 217.098 315.956 216.008C316.844 214.879 317.847 213.604 318.939 212.214C323.239 206.599 328.393 198.638 332.429 190.094C336.487 181.539 339.372 172.57 341.019 165.61C341.413 163.811 341.773 162.163 342.093 160.702C342.381 159.284 342.523 158.235 342.695 157.278C343.009 155.411 343.188 154.344 343.188 154.344L322.109 150.795C322.109 150.795 321.929 151.862 321.617 153.727C321.453 154.628 321.281 155.864 321.036 157.022C320.792 158.124 320.513 159.37 320.208 160.726C318.875 166.348 316.46 173.891 313.112 180.94C309.768 188.012 305.497 194.607 301.932 199.262C301.028 200.416 300.197 201.474 299.461 202.411C298.681 203.314 298.004 204.1 297.445 204.747C296.347 206.06 295.653 206.754 295.653 206.754Z" fill="#FAC717"/>
<path d="M211.913 239.985L210.378 261.305C210.378 261.305 211.553 261.383 213.611 261.515C214.639 261.603 215.894 261.573 217.33 261.612C218.769 261.615 220.389 261.705 222.158 261.609C229.23 261.505 238.671 260.535 247.858 258.339C257.059 256.208 265.941 252.876 272.323 249.836C273.945 249.127 275.37 248.351 276.65 247.697C277.919 247.025 279.054 246.491 279.938 245.957C281.723 244.925 282.745 244.336 282.745 244.336L271.894 225.917C271.894 225.917 271.049 226.408 269.566 227.267C268.835 227.715 267.887 228.148 266.835 228.708C265.774 229.249 264.597 229.903 263.247 230.483C257.953 233.007 250.591 235.764 242.971 237.528C235.365 239.348 227.55 240.156 221.686 240.237C220.221 240.328 218.875 240.237 217.685 240.239C216.493 240.205 215.453 240.241 214.598 240.164C212.889 240.049 211.913 239.985 211.913 239.985Z" fill="#FAC717"/>
<path d="M133.699 195.257L116.088 207.372C116.088 207.372 116.773 208.332 117.971 210.011C119.135 211.716 120.995 214.007 123.211 216.759C127.707 222.216 134.351 228.976 141.785 234.792C149.18 240.663 157.316 245.54 163.677 248.64C165.245 249.464 166.732 250.117 168.048 250.696C169.365 251.275 170.504 251.8 171.459 252.192C173.385 252.937 174.485 253.363 174.485 253.363L182.112 233.395C182.112 233.395 181.2 233.044 179.604 232.429C178.812 232.105 177.872 231.664 176.781 231.185C175.691 230.707 174.457 230.173 173.163 229.484C167.893 226.919 161.157 222.877 155.027 218.011C148.861 213.189 143.341 207.583 139.612 203.051C137.78 200.757 136.221 198.868 135.264 197.447C134.268 196.053 133.699 195.257 133.699 195.257Z" fill="#FAC717"/>
<path d="M119.899 106.193L99.4414 99.9969C99.4414 99.9969 99.1227 101.133 98.5734 103.121C98.3094 104.128 97.9521 105.298 97.6121 106.737C97.2907 108.197 96.9294 109.845 96.5347 111.642C96.3147 112.585 96.1894 113.393 96.0454 114.253C95.9001 115.116 95.7507 116.006 95.5961 116.922C95.5187 117.381 95.4414 117.845 95.3627 118.316L95.2681 118.944L95.2214 119.334L95.1281 120.121C95.0054 121.177 94.8787 122.254 94.7521 123.352C94.2641 127.741 94.0521 132.456 94.0374 137.172C94.0147 146.616 95.3521 156.012 96.8494 162.924C97.2601 164.645 97.6361 166.222 97.9694 167.622C98.2961 169.022 98.6961 170.212 98.9694 171.206C99.5494 173.189 99.8801 174.32 99.8801 174.32L120.251 167.841C120.251 167.841 119.977 166.902 119.5 165.26C119.277 164.434 118.935 163.452 118.669 162.29C118.393 161.133 118.081 159.825 117.741 158.4C116.507 152.674 115.389 144.9 115.413 137.069C115.431 133.16 115.6 129.246 116.009 125.596C116.115 124.685 116.219 123.788 116.321 122.91C116.361 122.557 116.401 122.209 116.441 121.865C116.52 121.394 116.597 120.93 116.676 120.472C116.829 119.556 116.98 118.665 117.124 117.802C117.269 116.938 117.405 116.076 117.568 115.449C117.871 114.092 118.148 112.848 118.393 111.745C118.653 110.628 118.972 109.604 119.185 108.785C119.64 107.136 119.899 106.193 119.899 106.193Z" fill="#FAC717"/>
<path d="M180.955 39.9241L173.05 20.0628C173.05 20.0628 171.955 20.5028 170.04 21.2721C169.102 21.7001 167.962 22.2201 166.654 22.8161C166 23.1161 165.306 23.4334 164.572 23.7708C163.856 24.1388 163.103 24.5268 162.316 24.9321C156.006 28.1188 147.938 33.0854 140.607 39.0254C133.218 44.8988 126.691 51.7734 122.228 57.2588C120.038 60.0374 118.22 62.3601 117.068 64.0761C115.879 65.7641 115.2 66.7281 115.2 66.7281L132.952 78.6361C132.952 78.6361 133.516 77.8374 134.506 76.4414C135.451 75.0134 136.97 73.0974 138.778 70.7868C142.48 66.2401 147.894 60.5308 154.032 55.6588C160.12 50.7294 166.816 46.6041 172.054 43.9614C172.706 43.6228 173.33 43.3001 173.923 42.9921C174.531 42.7161 175.108 42.4521 175.651 42.2054C176.735 41.7094 177.679 41.2761 178.458 40.9201C180.047 40.2854 180.955 39.9241 180.955 39.9241Z" fill="#FAC717"/>
<path d="M270.831 46.3031L281.453 27.7538C281.453 27.7538 280.426 27.1711 278.633 26.1524C277.711 25.6844 276.594 25.1151 275.313 24.4631C274.033 23.8044 272.582 23.0791 270.955 22.3844C267.738 20.9098 263.903 19.3591 259.715 17.9391C257.614 17.2498 255.455 16.4951 253.203 15.9231C252.085 15.6164 250.955 15.3084 249.823 14.9978C248.666 14.7058 247.442 14.4578 246.251 14.1898C245.07 13.9364 243.815 13.6444 242.697 13.4338C241.635 13.2538 240.578 13.0764 239.527 12.8991C239.002 12.8111 238.479 12.7231 237.961 12.6364L237.182 12.5044L236.074 12.3631C234.945 12.2311 233.83 12.1004 232.734 11.9724C230.546 11.6738 228.409 11.5831 226.389 11.4418C224.369 11.2738 222.453 11.2711 220.685 11.2444C217.146 11.1231 214.199 11.3671 212.137 11.4044C210.077 11.5244 208.903 11.6511 208.903 11.6511L210.653 32.9551C210.653 32.9551 211.625 32.8471 213.331 32.7471C215.042 32.7298 217.482 32.5044 220.415 32.6178C221.882 32.6404 223.473 32.6338 225.15 32.7818C226.827 32.9031 228.601 32.9644 230.422 33.2218C231.335 33.3284 232.262 33.4364 233.199 33.5458L233.554 33.5858L233.73 33.6058L233.818 33.6151L233.862 33.6204L233.885 33.6231C234.137 33.6631 233.565 33.5724 233.633 33.5831L234.411 33.7151C234.931 33.8031 235.454 33.8898 235.978 33.9791C237.027 34.1551 238.085 34.3324 239.147 34.5124C240.142 34.7031 240.978 34.9204 241.905 35.1178C242.814 35.3284 243.705 35.4991 244.63 35.7324C245.567 35.9924 246.503 36.2484 247.431 36.5044C249.302 36.9698 251.086 37.6084 252.83 38.1738C256.299 39.3511 259.474 40.6338 262.137 41.8578C263.489 42.4258 264.69 43.0311 265.747 43.5778C266.809 44.1164 267.734 44.5858 268.497 44.9724C269.982 45.8191 270.831 46.3031 270.831 46.3031Z" fill="#FAC717"/>
<path d="M321.893 120.533L343.018 117.269C343.018 117.269 342.978 116.977 342.903 116.429C342.802 115.887 342.653 115.089 342.466 114.073C342.274 113.06 342.043 111.827 341.778 110.415C341.445 109.015 341.07 107.437 340.661 105.716C338.937 98.8561 335.929 89.8641 331.745 81.4028C327.594 72.9268 322.365 65.0308 317.999 59.4735C315.855 56.6615 313.885 54.4681 312.531 52.9121C311.865 52.1241 311.305 51.5401 310.919 51.1441C310.537 50.7441 310.334 50.5308 310.334 50.5308L294.775 65.1881C294.775 65.1881 294.945 65.3655 295.262 65.6961C295.583 66.0241 296.051 66.5068 296.601 67.1641C297.721 68.4588 299.363 70.2734 301.139 72.6121C304.762 77.2254 309.103 83.7828 312.55 90.8121C316.023 97.8321 318.51 105.285 319.939 110.965C320.281 112.391 320.591 113.697 320.869 114.856C321.086 116.027 321.275 117.047 321.431 117.888C321.59 118.728 321.715 119.388 321.801 119.837C321.862 120.291 321.893 120.533 321.893 120.533Z" fill="#FAC717"/>
<path d="M329.77 168.377L350.298 174.333C350.298 174.333 350.699 173.112 351.229 170.927C351.505 169.837 351.841 168.515 352.226 166.996C352.542 165.461 352.899 163.733 353.289 161.845C354.751 154.281 355.906 144.013 355.686 133.721C355.483 123.411 353.931 113.259 352.155 105.679C351.666 103.739 351.218 101.963 350.822 100.388C350.413 98.8666 350.035 97.7599 349.737 96.7359C349.13 94.7493 348.785 93.6133 348.785 93.6133L328.338 99.8466C328.338 99.8466 328.685 100.981 329.289 102.968C329.573 103.936 330.005 105.225 330.337 106.493C330.639 107.715 330.981 109.093 331.353 110.597C332.814 116.84 334.147 125.504 334.314 134.152C334.495 142.819 333.522 151.468 332.291 157.847C331.963 159.437 331.663 160.896 331.398 162.189C331.073 163.468 330.787 164.584 330.553 165.504C330.113 167.349 329.77 168.377 329.77 168.377Z" fill="#3871C1"/>
<path d="M263.18 242.731L271.32 262.494C271.32 262.494 272.505 261.998 274.576 261.127C275.621 260.713 276.83 260.074 278.25 259.413C279.652 258.715 281.276 258.017 282.953 257.062C289.8 253.523 298.532 247.986 306.418 241.377C314.354 234.826 321.389 227.259 326.136 221.193C327.373 219.713 328.382 218.263 329.314 217.005C330.224 215.731 331.07 214.658 331.674 213.709C332.913 211.834 333.62 210.762 333.62 210.762L315.692 199.125C315.692 199.125 315.094 200.029 314.049 201.611C313.546 202.418 312.822 203.315 312.057 204.391C311.27 205.453 310.426 206.682 309.374 207.925C305.374 213.043 299.44 219.419 292.758 224.937C286.114 230.503 278.765 235.167 272.993 238.149C271.586 238.962 270.206 239.538 269.026 240.129C267.828 240.685 266.816 241.235 265.93 241.579C264.18 242.313 263.18 242.731 263.18 242.731Z" fill="#3871C1"/>
<path d="M163.522 237.057L153.17 255.758C153.17 255.758 154.303 256.362 156.289 257.417C158.251 258.513 161.178 259.841 164.678 261.448C171.714 264.582 181.479 267.941 191.557 269.997C201.619 272.125 211.923 272.924 219.633 272.854C221.562 272.896 223.327 272.808 224.893 272.733C226.458 272.657 227.823 272.616 228.945 272.533C231.185 272.324 232.463 272.202 232.463 272.202L230.378 250.929C230.378 250.929 229.299 251.033 227.414 251.213C226.469 251.282 225.318 251.31 223.999 251.376C222.682 251.441 221.195 251.521 219.571 251.478C213.078 251.54 204.401 250.862 195.915 249.072C187.419 247.34 179.175 244.509 173.237 241.861C170.287 240.493 167.807 239.389 166.155 238.454C164.479 237.565 163.522 237.057 163.522 237.057Z" fill="#3871C1"/>
<path d="M105.801 155.582L84.7295 159.167C84.7295 159.167 84.9708 160.43 85.4028 162.635C85.6348 163.744 85.8562 165.062 86.2228 166.626C86.6188 168.202 87.0655 169.979 87.5535 171.916C87.7948 172.935 88.0695 173.794 88.3482 174.708C88.6282 175.626 88.9175 176.575 89.2148 177.551C89.3642 178.039 89.5148 178.532 89.6668 179.034L89.8735 179.67L90.0188 180.074L90.3108 180.887C90.7042 181.975 91.1055 183.087 91.5135 184.219C93.1722 188.735 95.2588 193.436 97.5375 198.04C102.107 207.259 107.98 215.768 112.8 221.778C114.036 223.258 115.171 224.612 116.176 225.814C117.175 227.02 118.144 227.986 118.893 228.824C120.421 230.474 121.296 231.415 121.296 231.415L136.632 216.526C136.632 216.526 135.897 215.73 134.612 214.338C133.983 213.63 133.157 212.826 132.32 211.804C131.473 210.792 130.519 209.652 129.476 208.406C125.421 203.34 120.468 196.183 116.62 188.409C114.704 184.523 112.937 180.56 111.539 176.74C111.192 175.783 110.853 174.843 110.52 173.923C110.384 173.544 110.247 173.17 110.113 172.8C109.961 172.3 109.811 171.806 109.661 171.318C109.364 170.342 109.075 169.394 108.796 168.476C108.513 167.555 108.225 166.646 108.075 165.935C107.7 164.432 107.357 163.054 107.053 161.832C106.76 160.592 106.568 159.423 106.376 158.505C106.012 156.645 105.801 155.582 105.801 155.582Z" fill="#3871C1"/>
<path d="M133.566 59.6904L117.627 45.4464C117.627 45.4464 116.774 46.4077 115.281 48.0877C114.574 48.9611 113.715 50.0224 112.73 51.2397C112.239 51.8491 111.717 52.4984 111.166 53.1824C110.646 53.8904 110.101 54.6344 109.531 55.4117C104.927 61.5877 99.4766 70.3531 95.2166 79.7091C90.87 89.0277 87.8486 98.9051 86.1646 106.424C85.3806 110.198 84.7366 113.345 84.45 115.578C84.1113 117.801 83.918 119.072 83.918 119.072L105.118 121.805C105.118 121.805 105.283 120.734 105.571 118.861C105.805 116.978 106.363 114.328 107.013 111.142C108.435 104.804 110.979 96.4677 114.655 88.6024C118.253 80.7051 122.853 73.3051 126.737 68.0957C127.215 67.4384 127.675 66.8091 128.111 66.2104C128.578 65.6344 129.019 65.0891 129.435 64.5757C130.265 63.5477 130.987 62.6517 131.582 61.9131C132.845 60.4984 133.566 59.6904 133.566 59.6904Z" fill="#3871C1"/>
<path d="M225.825 21.5752L227.052 0.235218C227.052 0.235218 225.769 0.165886 223.523 0.045887C222.399 0.0365524 221.033 0.0245514 219.467 0.011219C217.9 -0.0074501 216.132 -0.0114479 214.207 0.104549C210.353 0.231216 205.861 0.581882 201.088 1.23388C198.705 1.58588 196.233 1.89922 193.76 2.43655C192.52 2.68188 191.269 2.92989 190.015 3.17788C188.745 3.45522 187.437 3.80722 186.151 4.12322C184.877 4.44988 183.523 4.77255 182.325 5.11122C181.195 5.45655 180.068 5.79922 178.951 6.13922C178.392 6.30989 177.835 6.47922 177.281 6.64855L176.453 6.90188L175.327 7.29522C174.161 7.71522 173.012 8.12988 171.88 8.53788C169.601 9.31122 167.473 10.2619 165.436 11.1072C163.384 11.9245 161.515 12.8526 159.777 13.6872C158.033 14.5086 156.448 15.2859 155.085 16.0605C153.709 16.8085 152.511 17.4619 151.523 17.9992C150.533 18.5339 149.799 19.0285 149.279 19.3312C148.764 19.6445 148.489 19.8125 148.489 19.8125L159.564 38.0952C159.564 38.0952 159.795 37.9539 160.228 37.6885C160.667 37.4352 161.281 37.0112 162.117 36.5645C162.949 36.1125 163.961 35.5632 165.121 34.9339C166.267 34.2752 167.605 33.6232 169.077 32.9339C170.543 32.2312 172.116 31.4379 173.852 30.7565C175.575 30.0472 177.364 29.2312 179.296 28.5859C180.252 28.2405 181.225 27.8885 182.209 27.5325L182.579 27.3979L182.764 27.3299L182.856 27.2979L182.903 27.2805L182.927 27.2712C183.171 27.1925 182.619 27.3685 182.685 27.3485L183.515 27.0952C184.068 26.9272 184.624 26.7565 185.183 26.5859C186.3 26.2459 187.427 25.9032 188.557 25.5579C189.632 25.2579 190.581 25.0539 191.6 24.7925C192.611 24.5499 193.585 24.2765 194.62 24.0512C195.679 23.8432 196.733 23.6352 197.78 23.4312C199.864 22.9672 201.949 22.7165 203.957 22.4165C207.979 21.8672 211.761 21.5685 215.007 21.4645C216.628 21.3605 218.117 21.3685 219.436 21.3872C220.755 21.3965 221.907 21.4045 222.853 21.4099C224.744 21.5152 225.825 21.5752 225.825 21.5752Z" fill="#3871C1"/>
<path d="M313.151 69.9229L330.599 57.5735C330.599 57.5735 330.417 57.3095 330.077 56.8122C329.716 56.3309 329.183 55.6255 328.505 54.7282C327.828 53.8309 327.003 52.7415 326.057 51.4935C325.052 50.2909 323.919 48.9349 322.683 47.4562C317.668 41.6068 310.361 34.3028 302.169 28.0895C294.003 21.8415 285.065 16.6855 278.107 13.3909C274.647 11.6922 271.66 10.5122 269.583 9.65218C268.552 9.20818 267.72 8.91085 267.152 8.71218C266.585 8.50685 266.284 8.39885 266.284 8.39885L258.901 28.4589C258.901 28.4589 259.157 28.5508 259.635 28.7229C260.116 28.8895 260.817 29.1375 261.687 29.5162C263.439 30.2468 265.963 31.2322 268.881 32.6735C274.755 35.4548 282.299 39.8095 289.192 45.0749C296.105 50.3175 302.257 56.4775 306.484 61.4015C307.525 62.6469 308.481 63.7882 309.328 64.8002C310.123 65.8535 310.815 66.7709 311.387 67.5269C311.957 68.2815 312.408 68.8749 312.716 69.2789C313 69.6989 313.151 69.9229 313.151 69.9229Z" fill="#3871C1"/>
<path d="M244.006 57.0088L194.425 216.63" stroke="#7B7979" stroke-width="8" stroke-miterlimit="10"/>
<path d="M234.033 56.844L248.092 43.8507L252.317 62.5227L234.033 56.844Z" fill="#7B7979"/>
<path d="M287.945 135.95C287.945 174.014 257.088 204.871 219.023 204.871C180.957 204.871 150.099 174.014 150.099 135.95C150.099 97.8861 180.957 67.0275 219.023 67.0275C257.088 67.0275 287.945 97.8861 287.945 135.95Z" fill="white"/>
<path d="M287.945 135.95C287.945 174.014 257.088 204.871 219.023 204.871C180.957 204.871 150.099 174.014 150.099 135.95C150.099 97.8861 180.957 67.0275 219.023 67.0275C257.088 67.0275 287.945 97.8861 287.945 135.95Z" stroke="#7B7979" stroke-width="4" stroke-miterlimit="10"/>
<path d="M219.257 87.1872C230.465 87.1872 239.548 109.019 239.548 135.95C239.548 162.882 230.465 184.714 219.257 184.714C208.051 184.714 198.967 162.882 198.967 135.95C198.967 109.019 208.051 87.1872 219.257 87.1872Z" stroke="#40B93C" stroke-width="4" stroke-miterlimit="10"/>
<path d="M179.495 164.988C172.932 155.905 185.309 135.756 207.14 119.985C228.968 104.213 251.984 98.792 258.549 107.876C265.112 116.959 252.735 137.107 230.904 152.879C209.075 168.651 186.057 174.072 179.495 164.988Z" stroke="#00ADEF" stroke-width="4" stroke-miterlimit="10"/>
<path d="M176.064 113.322C181.264 103.395 204.818 105.479 228.674 117.977C252.53 130.474 267.653 148.654 262.453 158.581C257.252 168.507 233.697 166.422 209.842 153.925C185.986 141.426 170.864 123.249 176.064 113.322Z" stroke="#EF2E32" stroke-width="4" stroke-miterlimit="10"/>
</g>
<path d="M50.2034 285.776H72.8778V361.428C72.8778 368.421 71.3061 374.496 68.1628 379.652C65.0548 384.808 60.7283 388.782 55.1833 391.572C49.6383 394.362 43.1928 395.757 35.8466 395.757C29.3127 395.757 23.3792 394.609 18.0462 392.314C12.7484 389.983 8.54557 386.451 5.43757 381.718C2.32956 376.95 0.793219 370.964 0.828537 363.759H23.6618C23.7324 366.62 24.3152 369.074 25.41 371.123C26.5402 373.136 28.0766 374.69 30.0191 375.785C31.9969 376.844 34.3279 377.374 37.0121 377.374C39.8375 377.374 42.2215 376.774 44.164 375.573C46.1418 374.337 47.6429 372.535 48.6671 370.169C49.6913 367.803 50.2034 364.889 50.2034 361.428V285.776ZM142.119 331.072V348.978H92.6383V331.072H142.119ZM161.774 394.274V285.776H204.579C212.809 285.776 219.819 287.348 225.611 290.491C231.404 293.599 235.818 297.926 238.856 303.471C241.929 308.98 243.465 315.337 243.465 322.542C243.465 329.747 241.911 336.105 238.803 341.614C235.695 347.124 231.192 351.415 225.294 354.488C219.431 357.56 212.332 359.097 203.997 359.097H176.713V340.714H200.288C204.703 340.714 208.341 339.954 211.202 338.436C214.098 336.882 216.252 334.745 217.665 332.025C219.113 329.271 219.837 326.11 219.837 322.542C219.837 318.94 219.113 315.797 217.665 313.112C216.252 310.393 214.098 308.291 211.202 306.808C208.306 305.289 204.632 304.53 200.182 304.53H184.713V394.274H161.774ZM258.365 394.274V285.776H331.473V304.689H281.304V330.542H327.712V349.455H281.304V375.361H331.685V394.274H258.365ZM345.579 304.689V285.776H434.687V304.689H401.47V394.274H378.796V304.689H345.579Z" fill="#3871C1"/>
<mask id="mask1_177_2244" style="mask-type:luminance" maskUnits="userSpaceOnUse" x="-342" y="-119" width="1123" height="794">
<path d="M-342 -119H780.52V674.707H-342V-119Z" fill="white"/>
</mask>
<g mask="url(#mask1_177_2244)">
<path d="M260.296 161.778L239.108 158.153L245.482 165.068L242.634 174.028L260.296 161.778Z" fill="#EF2E32"/>
<path d="M177.011 166.095L188.523 147.943L179.687 151.156L172.518 145.075L177.011 166.095Z" fill="#00ADEF"/>
<path d="M222.302 84.6234L201.369 89.5127L209.926 93.4087L210.782 102.77L222.302 84.6234Z" fill="#40B93C"/>
</g>
</g>
<defs>
<clipPath id="clip0_177_2244">
<rect width="435" height="396" fill="white"/>
</clipPath>
</defs>
</svg>
