<svg width="768" height="275" viewBox="0 0 768 275" fill="none" xmlns="http://www.w3.org/2000/svg">
<g clip-path="url(#clip0_177_2118)">
<mask id="mask0_177_2118" style="mask-type:luminance" maskUnits="userSpaceOnUse" x="-218" y="-170" width="1136" height="794">
<path d="M-218 -170H918V624H-218V-170Z" fill="white"/>
</mask>
<g mask="url(#mask0_177_2118)">
<path d="M251.876 154.28C242.824 217.092 183.985 260.753 120.444 251.807C56.9087 242.864 12.7352 184.698 21.7852 121.891C30.8366 59.0839 89.6762 15.4224 153.215 24.3684C216.753 33.3144 260.922 91.4759 251.876 154.28Z" fill="white"/>
<path d="M214.144 208.436L230.046 222.933C230.046 222.933 230.884 222.093 232.23 220.516C232.913 219.733 233.739 218.784 234.689 217.694C235.587 216.564 236.602 215.289 237.707 213.898C242.06 208.281 247.277 200.317 251.361 191.77C255.467 183.212 258.386 174.239 260.054 167.277C260.452 165.477 260.817 163.829 261.141 162.367C261.431 160.949 261.574 159.899 261.748 158.941C262.067 157.074 262.249 156.007 262.249 156.007L240.917 152.456C240.917 152.456 240.735 153.523 240.418 155.389C240.253 156.291 240.078 157.528 239.831 158.685C239.583 159.788 239.301 161.034 238.993 162.391C237.644 168.015 235.199 175.561 231.812 182.613C228.426 189.687 224.106 196.285 220.498 200.941C219.581 202.096 218.742 203.154 217.997 204.091C217.208 204.994 216.521 205.781 215.956 206.428C214.844 207.742 214.144 208.436 214.144 208.436Z" fill="#FAC717"/>
<path d="M129.396 241.681L127.843 263.008C127.843 263.008 129.032 263.084 131.115 263.217C132.155 263.306 133.425 263.277 134.878 263.314C136.334 263.317 137.974 263.407 139.764 263.311C146.921 263.207 156.476 262.237 165.773 260.039C175.086 257.908 184.071 254.576 190.532 251.534C192.174 250.824 193.615 250.048 194.911 249.394C196.195 248.722 197.343 248.188 198.238 247.655C200.045 246.622 201.078 246.032 201.078 246.032L190.097 227.607C190.097 227.607 189.242 228.098 187.742 228.957C187.002 229.405 186.044 229.838 184.979 230.398C183.904 230.939 182.713 231.594 181.347 232.174C175.989 234.699 168.539 237.458 160.828 239.221C153.129 241.042 145.221 241.85 139.287 241.933C137.804 242.022 136.442 241.933 135.237 241.933C134.031 241.899 132.978 241.935 132.113 241.858C130.384 241.743 129.396 241.681 129.396 241.681Z" fill="#FAC717"/>
<path d="M50.243 196.935L32.4209 209.054C32.4209 209.054 33.1145 210.015 34.3262 211.694C35.5042 213.4 37.3865 215.692 39.6291 218.445C44.1791 223.904 50.9029 230.666 58.4268 236.486C65.9103 242.357 74.144 247.237 80.5817 250.338C82.1686 251.163 83.6731 251.814 85.0049 252.396C86.338 252.973 87.4904 253.5 88.4565 253.891C90.4063 254.635 91.5195 255.063 91.5195 255.063L99.2378 235.087C99.2378 235.087 98.3148 234.735 96.6996 234.12C95.8981 233.797 94.9468 233.354 93.8431 232.878C92.7393 232.398 91.4912 231.864 90.181 231.173C84.8483 228.608 78.0315 224.566 71.8272 219.697C65.5878 214.874 60.0015 209.265 56.2274 204.732C54.3734 202.437 52.796 200.547 51.8272 199.125C50.8192 197.732 50.243 196.935 50.243 196.935Z" fill="#FAC717"/>
<path d="M36.2776 107.838L15.5747 101.64C15.5747 101.64 15.2522 102.776 14.6962 104.765C14.4291 105.772 14.0674 106.943 13.7233 108.382C13.3982 109.843 13.0325 111.491 12.6331 113.289C12.4104 114.233 12.2836 115.041 12.1379 115.901C11.9908 116.764 11.8397 117.655 11.6831 118.571C11.6049 119.03 11.5266 119.494 11.447 119.965L11.3512 120.594L11.304 120.984L11.2095 121.771C11.0854 122.828 10.9572 123.905 10.829 125.003C10.3351 129.394 10.1206 134.111 10.1058 138.828C10.0828 148.276 11.4362 157.675 12.9515 164.59C13.3671 166.312 13.7476 167.89 14.085 169.29C14.4156 170.691 14.8204 171.88 15.097 172.876C15.6839 174.859 16.0186 175.99 16.0186 175.99L36.6339 169.509C36.6339 169.509 36.3573 168.57 35.8742 166.927C35.6489 166.101 35.3021 165.118 35.0336 163.956C34.7542 162.798 34.4385 161.49 34.0944 160.064C32.8449 154.337 31.7142 146.559 31.7385 138.727C31.756 134.813 31.9274 130.9 32.3416 127.248C32.4482 126.337 32.5535 125.439 32.6574 124.562C32.6978 124.208 32.7383 123.86 32.7788 123.516C32.8584 123.045 32.9367 122.581 33.0163 122.122C33.1715 121.206 33.3239 120.315 33.4697 119.452C33.6167 118.587 33.7544 117.724 33.919 117.098C34.2253 115.74 34.506 114.495 34.7542 113.392C35.0174 112.274 35.3399 111.25 35.5558 110.431C36.0159 108.781 36.2776 107.838 36.2776 107.838Z" fill="#FAC717"/>
<path d="M98.0677 41.5447L90.0675 21.676C90.0675 21.676 88.9597 22.1162 87.022 22.8858C86.0721 23.3139 84.9184 23.8341 83.5947 24.4304C82.9335 24.7305 82.2305 25.0479 81.4883 25.3854C80.7637 25.7535 80.0014 26.1417 79.2052 26.5471C72.8188 29.735 64.6539 34.7035 57.2352 40.6457C49.7571 46.5212 43.1521 53.3984 38.6358 58.8858C36.4189 61.6655 34.5797 63.989 33.4139 65.7056C32.2103 67.3942 31.5234 68.3586 31.5234 68.3586L49.4886 80.271C49.4886 80.271 50.0594 79.472 51.0606 78.0755C52.0173 76.647 53.5542 74.7303 55.3839 72.4188C59.131 67.8704 64.6094 62.159 70.8218 57.2852C76.9829 52.354 83.7593 48.2272 89.0595 45.5835C89.7193 45.2447 90.3508 44.9219 90.9513 44.6138C91.5666 44.3377 92.1509 44.0736 92.7 43.8269C93.7971 43.3307 94.7524 42.8972 95.5404 42.5411C97.1488 41.9062 98.0677 41.5447 98.0677 41.5447Z" fill="#FAC717"/>
<path d="M189.023 47.926L199.772 29.3698C199.772 29.3698 198.734 28.787 196.917 27.7679C195.986 27.2997 194.855 26.7302 193.558 26.078C192.264 25.419 190.796 24.6934 189.147 23.9985C185.893 22.5233 182.012 20.9721 177.774 19.5515C175.647 18.862 173.463 18.107 171.184 17.5348C170.051 17.228 168.909 16.9199 167.763 16.6091C166.592 16.317 165.353 16.0689 164.148 15.8008C162.953 15.5474 161.683 15.2553 160.551 15.0445C159.477 14.8645 158.407 14.6871 157.343 14.5097C156.812 14.4216 156.284 14.3336 155.758 14.2469L154.97 14.1149L153.849 13.9735C152.706 13.8414 151.579 13.7107 150.468 13.5827C148.254 13.2839 146.091 13.1932 144.047 13.0518C142.003 12.8837 140.064 12.8811 138.273 12.8544C134.693 12.733 131.711 12.9771 129.624 13.0145C127.539 13.1345 126.352 13.2612 126.352 13.2612L128.122 34.5731C128.122 34.5731 129.106 34.4651 130.833 34.365C132.564 34.3477 135.033 34.1223 138.002 34.2356C139.487 34.2583 141.096 34.2516 142.793 34.3997C144.491 34.5211 146.287 34.5824 148.129 34.8399C149.052 34.9466 149.991 35.0546 150.941 35.164L151.298 35.204L151.476 35.224L151.565 35.2333L151.61 35.2387L151.633 35.2413C151.889 35.2814 151.309 35.1907 151.378 35.2013L152.166 35.3334C152.692 35.4214 153.221 35.5081 153.751 35.5975C154.813 35.7735 155.885 35.9509 156.96 36.131C157.965 36.3217 158.811 36.5392 159.749 36.7366C160.669 36.9473 161.571 37.118 162.506 37.3515C163.456 37.6115 164.403 37.8676 165.342 38.1237C167.235 38.5892 169.041 39.2281 170.806 39.7937C174.317 40.9715 177.53 42.2546 180.224 43.479C181.594 44.0473 182.807 44.6528 183.878 45.1997C184.952 45.7386 185.889 46.2081 186.661 46.5949C188.164 47.4418 189.023 47.926 189.023 47.926Z" fill="#FAC717"/>
<path d="M240.698 122.184L262.076 118.919C262.076 118.919 262.035 118.627 261.959 118.078C261.857 117.535 261.707 116.738 261.517 115.721C261.324 114.708 261.089 113.474 260.821 112.061C260.485 110.661 260.104 109.083 259.69 107.361C257.947 100.498 254.901 91.5032 250.667 83.0387C246.468 74.5596 241.176 66.6607 236.758 61.1013C234.587 58.2882 232.592 56.0941 231.224 54.5375C230.549 53.7492 229.981 53.165 229.593 52.7689C229.205 52.3687 229 52.1553 229 52.1553L213.255 66.8181C213.255 66.8181 213.426 66.9955 213.747 67.3262C214.071 67.6544 214.545 68.1372 215.101 68.7948C216.234 70.0899 217.897 71.9053 219.694 74.2448C223.361 78.8598 227.755 85.4196 231.243 92.4515C234.757 99.4741 237.273 106.93 238.721 112.612C239.065 114.038 239.381 115.345 239.66 116.504C239.882 117.676 240.073 118.696 240.231 119.538C240.392 120.378 240.517 121.038 240.603 121.488C240.665 121.941 240.698 122.184 240.698 122.184Z" fill="#FAC717"/>
<path d="M248.675 170.048L269.445 176.003C269.445 176.003 269.85 174.782 270.386 172.595C270.665 171.506 271.005 170.183 271.395 168.663C271.715 167.129 272.076 165.4 272.47 163.511C273.952 155.944 275.119 145.672 274.897 135.376C274.692 125.062 273.122 114.906 271.324 107.323C270.828 105.384 270.376 103.606 269.974 102.031C269.561 100.509 269.178 99.4018 268.876 98.3774C268.262 96.39 267.912 95.2536 267.912 95.2536L247.226 101.487C247.226 101.487 247.576 102.623 248.189 104.61C248.475 105.579 248.912 106.869 249.248 108.137C249.555 109.359 249.901 110.738 250.278 112.243C251.755 118.488 253.106 127.156 253.275 135.807C253.457 144.477 252.473 153.13 251.226 159.511C250.896 161.103 250.591 162.562 250.322 163.856C249.993 165.135 249.704 166.252 249.467 167.172C249.022 169.018 248.675 170.048 248.675 170.048Z" fill="#3871C1"/>
<path d="M181.28 244.431L189.517 264.196C189.517 264.196 190.716 263.701 192.812 262.829C193.87 262.414 195.094 261.776 196.529 261.115C197.949 260.416 199.594 259.718 201.29 258.762C208.217 255.222 217.055 249.684 225.037 243.071C233.067 236.519 240.187 228.95 244.99 222.879C246.243 221.4 247.266 219.95 248.208 218.691C249.129 217.417 249.985 216.344 250.596 215.394C251.85 213.519 252.566 212.446 252.566 212.446L234.426 200.806C234.426 200.806 233.822 201.712 232.766 203.296C232.256 204.101 231.523 205 230.747 206.076C229.952 207.139 229.097 208.367 228.034 209.611C223.984 214.734 217.978 221.109 211.215 226.63C204.493 232.2 197.054 236.866 191.213 239.848C189.788 240.662 188.393 241.237 187.199 241.829C185.985 242.387 184.96 242.936 184.064 243.28C182.292 244.013 181.28 244.431 181.28 244.431Z" fill="#3871C1"/>
<path d="M80.4209 238.755L69.9473 257.459C69.9473 257.459 71.0956 258.062 73.1034 259.117C75.0896 260.214 78.0528 261.542 81.5935 263.149C88.714 266.287 98.5966 269.646 108.795 271.702C118.98 273.831 129.407 274.63 137.208 274.56C139.161 274.602 140.947 274.516 142.531 274.44C144.115 274.364 145.498 274.323 146.632 274.24C148.899 274.031 150.194 273.908 150.194 273.908L148.084 252.635C148.084 252.635 146.992 252.736 145.083 252.916C144.128 252.987 142.963 253.015 141.629 253.08C140.295 253.146 138.791 253.227 137.146 253.182C130.576 253.244 121.793 252.567 113.206 250.775C104.607 249.043 96.2635 246.211 90.2536 243.562C87.2675 242.194 84.759 241.089 83.0872 240.154C81.3911 239.263 80.4209 238.755 80.4209 238.755Z" fill="#3871C1"/>
<path d="M22.0062 157.246L0.686523 160.832C0.686523 160.832 0.930755 162.095 1.36794 164.301C1.60138 165.411 1.82537 166.728 2.19779 168.293C2.59854 169.87 3.05058 171.648 3.54444 173.586C3.78867 174.605 4.06663 175.464 4.34865 176.379C4.63201 177.296 4.92482 178.246 5.22572 179.222C5.37685 179.711 5.52932 180.204 5.68315 180.706L5.8923 181.342L6.03937 181.746L6.33488 182.56C6.73294 183.648 7.13909 184.76 7.55199 185.893C9.23058 190.411 11.3423 195.114 13.6483 199.719C18.2725 208.941 24.2164 217.454 29.0929 223.465C30.3451 224.946 31.4934 226.301 32.5108 227.503C33.5215 228.71 34.5025 229.676 35.2608 230.515C36.8071 232.163 37.6923 233.108 37.6923 233.108L53.2084 218.215C53.2084 218.215 52.4649 217.419 51.1642 216.027C50.5273 215.318 49.692 214.514 48.8446 213.492C47.9878 212.48 47.0203 211.34 45.9651 210.092C41.8618 205.024 36.849 197.864 32.9548 190.086C31.0157 186.2 29.2279 182.236 27.8111 178.414C27.4616 177.456 27.1188 176.515 26.7815 175.594C26.6425 175.217 26.5049 174.841 26.37 174.471C26.2161 173.971 26.0623 173.476 25.9125 172.989C25.6116 172.013 25.3188 171.063 25.0355 170.146C24.7507 169.224 24.4593 168.314 24.3068 167.605C23.9276 166.1 23.5809 164.721 23.2732 163.499C22.9764 162.259 22.782 161.089 22.5864 160.17C22.218 158.309 22.0062 157.246 22.0062 157.246Z" fill="#3871C1"/>
<path d="M50.1044 61.3143L33.9797 47.069C33.9797 47.069 33.1162 48.0307 31.6049 49.7113C30.8884 50.585 30.0194 51.6467 29.0223 52.8645C28.5257 53.4741 27.9967 54.1236 27.4395 54.8079C26.9132 55.5162 26.3613 56.2604 25.7852 57.0381C21.1272 63.2163 15.6098 71.9849 11.3 81.3444C6.89975 90.6665 3.84213 100.547 2.13925 108.069C1.34584 111.845 0.694107 114.993 0.403998 117.226C0.0599149 119.45 -0.135742 120.722 -0.135742 120.722L21.3134 123.455C21.3134 123.455 21.4808 122.385 21.7722 120.51C22.0084 118.626 22.5737 115.974 23.2309 112.788C24.6706 106.447 27.2452 98.1066 30.9653 90.2383C34.6072 82.3381 39.2624 74.934 43.1931 69.7227C43.6775 69.0652 44.143 68.4356 44.5842 67.8367C45.0565 67.2605 45.5032 66.715 45.9241 66.2014C46.7634 65.1731 47.4948 64.2767 48.0979 63.5378C49.3744 62.1226 50.1044 61.3143 50.1044 61.3143Z" fill="#3871C1"/>
<path d="M143.477 23.183L144.718 1.84046C144.718 1.84046 143.42 1.7711 141.146 1.65106C140.007 1.64172 138.626 1.62972 137.04 1.61771C135.455 1.59771 133.666 1.5937 131.717 1.70974C127.819 1.83646 123.273 2.18859 118.442 2.84083C116.03 3.19163 113.528 3.50507 111.026 4.0426C109.77 4.28803 108.506 4.53612 107.235 4.78555C105.951 5.06165 104.628 5.41378 103.324 5.73123C102.037 6.05802 100.665 6.37947 99.4542 6.71826C98.3086 7.06372 97.1698 7.40652 96.0377 7.74798C95.4723 7.91871 94.9096 8.0881 94.3497 8.2575L93.5104 8.50959L92.3702 8.90307C91.1922 9.32322 90.0277 9.73804 88.8835 10.1462C86.5761 10.9198 84.4239 11.8722 82.3621 12.7165C80.2854 13.5341 78.3923 14.4638 76.6341 15.2974C74.8705 16.1191 73.2662 16.898 71.8858 17.6716C70.4946 18.4213 69.2802 19.0735 68.2803 19.611C67.2805 20.1459 66.537 20.6421 66.0094 20.9435C65.4899 21.2583 65.2119 21.425 65.2119 21.425L76.4155 39.7104C76.4155 39.7104 76.6503 39.5691 77.0875 39.3036C77.5314 39.0502 78.1535 38.626 78.9995 38.1792C79.8429 37.7257 80.8657 37.1775 82.0396 36.5479C83.1987 35.889 84.5548 35.2368 86.0444 34.5459C87.5274 33.8429 89.1183 33.0493 90.8765 32.3677C92.6198 31.6581 94.4293 30.8418 96.3858 30.1963C97.3533 29.8508 98.3383 29.4987 99.3341 29.1425L99.7079 29.0078L99.8955 28.9411L99.9886 28.9078L100.037 28.8905L100.06 28.8811C100.307 28.8038 99.7497 28.9785 99.8172 28.9585L100.655 28.7051C101.215 28.537 101.779 28.3663 102.345 28.1969C103.474 27.8554 104.614 27.5126 105.758 27.1671C106.847 26.867 107.807 26.663 108.839 26.4015C109.86 26.1588 110.847 25.8853 111.894 25.6599C112.967 25.4518 114.034 25.2451 115.092 25.0397C117.202 24.5755 119.313 24.3248 121.345 24.0247C125.414 23.4751 129.244 23.1763 132.528 23.0723C134.169 22.9683 135.675 22.9763 137.011 22.9949C138.345 23.0043 139.51 23.0123 140.469 23.0176C142.382 23.123 143.477 23.183 143.477 23.183Z" fill="#3871C1"/>
<path d="M231.857 71.5513L249.509 59.2014C249.509 59.2014 249.325 58.9359 248.981 58.4384C248.614 57.9569 248.076 57.2513 247.39 56.3537C246.703 55.4573 245.868 54.3676 244.912 53.1178C243.895 51.916 242.749 50.5595 241.498 49.079C236.421 43.2288 229.028 35.9221 220.737 29.7051C212.472 23.4562 203.427 18.2983 196.385 15.0024C192.885 13.3018 189.861 12.1213 187.76 11.261C186.716 10.8182 185.874 10.5207 185.3 10.3207C184.727 10.1166 184.42 10.0072 184.42 10.0072L176.953 30.0706C176.953 30.0706 177.211 30.1613 177.695 30.3334C178.181 30.5001 178.892 30.7482 179.772 31.127C181.544 31.8579 184.099 32.845 187.052 34.2868C192.997 37.0679 200.633 41.4241 207.608 46.6928C214.604 51.9374 220.83 58.101 225.109 63.0268C226.162 64.2726 227.13 65.4143 227.987 66.4267C228.791 67.4791 229.493 68.3981 230.07 69.1544C230.649 69.9093 231.104 70.5029 231.414 70.907C231.703 71.3272 231.857 71.5513 231.857 71.5513Z" fill="#3871C1"/>
<path d="M161.875 58.6356L111.698 218.316" stroke="#7B7979" stroke-width="8" stroke-miterlimit="10"/>
<path d="M151.782 58.4708L166.01 45.4727L170.286 64.1516L151.782 58.4708Z" fill="#7B7979"/>
<path d="M206.343 137.606C206.343 175.684 175.114 206.553 136.593 206.553C98.0687 206.553 66.8408 175.684 66.8408 137.606C66.8408 99.5281 98.0687 68.658 136.593 68.658C175.114 68.658 206.343 99.5281 206.343 137.606Z" fill="white"/>
<path d="M206.343 137.606C206.343 175.684 175.114 206.553 136.593 206.553C98.0687 206.553 66.8408 175.684 66.8408 137.606C66.8408 99.5281 98.0687 68.658 136.593 68.658C175.114 68.658 206.343 99.5281 206.343 137.606Z" stroke="#7B7979" stroke-width="4" stroke-miterlimit="10"/>
<path d="M136.83 88.8252C148.171 88.8252 157.365 110.665 157.365 137.606C157.365 164.548 148.171 186.388 136.83 186.388C125.489 186.388 116.296 164.548 116.296 137.606C116.296 110.665 125.489 88.8252 136.83 88.8252Z" stroke="#40B93C" stroke-width="4" stroke-miterlimit="10"/>
<path d="M96.589 166.655C89.9475 157.569 102.473 137.412 124.566 121.635C146.656 105.858 169.949 100.434 176.593 109.522C183.233 118.608 170.707 138.763 148.616 154.541C126.524 170.319 103.23 175.742 96.589 166.655Z" stroke="#00ADEF" stroke-width="4" stroke-miterlimit="10"/>
<path d="M93.1169 114.97C98.3794 105.039 122.217 107.124 146.358 119.626C170.502 132.128 185.806 150.315 180.544 160.245C175.28 170.175 151.442 168.089 127.301 155.587C103.159 143.084 87.8545 124.9 93.1169 114.97Z" stroke="#EF2E32" stroke-width="4" stroke-miterlimit="10"/>
</g>
<path d="M383.4 73.6508H406.074V149.302C406.074 156.295 404.502 162.37 401.359 167.527C398.251 172.683 393.925 176.656 388.38 179.447C382.835 182.237 376.389 183.632 369.043 183.632C362.509 183.632 356.576 182.484 351.242 180.188C345.945 177.857 341.742 174.325 338.634 169.593C335.526 164.825 333.99 158.838 334.025 151.633H356.858C356.929 154.494 357.511 156.949 358.606 158.997C359.737 161.01 361.273 162.564 363.215 163.659C365.193 164.719 367.524 165.249 370.208 165.249C373.034 165.249 375.418 164.648 377.36 163.447C379.338 162.211 380.839 160.41 381.863 158.044C382.888 155.677 383.4 152.764 383.4 149.302V73.6508ZM475.315 118.946V136.853H425.835V118.946H475.315ZM494.97 182.148V73.6508H537.776C546.005 73.6508 553.016 75.2225 558.808 78.3658C564.6 81.4738 569.015 85.8003 572.052 91.3452C575.125 96.8549 576.661 103.212 576.661 110.417C576.661 117.622 575.107 123.979 571.999 129.489C568.891 134.999 564.388 139.29 558.49 142.362C552.627 145.435 545.528 146.971 537.193 146.971H509.91V128.588H533.485C537.899 128.588 541.537 127.829 544.398 126.31C547.294 124.756 549.448 122.62 550.861 119.9C552.309 117.145 553.033 113.984 553.033 110.417C553.033 106.815 552.309 103.671 550.861 100.987C549.448 98.2676 547.294 96.1662 544.398 94.6828C541.502 93.1641 537.829 92.4048 533.379 92.4048H517.909V182.148H494.97ZM591.561 182.148V73.6508H664.67V92.5637H614.5V118.417H660.908V137.33H614.5V163.236H664.882V182.148H591.561ZM678.775 92.5637V73.6508H767.883V92.5637H734.666V182.148H711.992V92.5637H678.775Z" fill="#3871C1"/>
<mask id="mask1_177_2118" style="mask-type:luminance" maskUnits="userSpaceOnUse" x="-218" y="-170" width="1136" height="794">
<path d="M-218 -170H918V624H-218V-170Z" fill="white"/>
</mask>
<g mask="url(#mask1_177_2118)">
<path d="M178.362 163.444L156.92 159.817L163.368 166.734L160.486 175.698L178.362 163.444Z" fill="#EF2E32"/>
<path d="M94.0756 167.762L105.726 149.603L96.7837 152.818L89.5283 146.734L94.0756 167.762Z" fill="#00ADEF"/>
<path d="M139.91 86.2602L118.727 91.1513L127.387 95.0488L128.252 104.414L139.91 86.2602Z" fill="#40B93C"/>
</g>
</g>
<defs>
<clipPath id="clip0_177_2118">
<rect width="768" height="275" fill="white"/>
</clipPath>
</defs>
</svg>
